<svg viewBox="0 0 1579 675" xmlns="http://www.w3.org/2000/svg" width="1579" height="675" fill="none"><path fill="#000" d="M319.74 220.33a6.4 6.4 0 0 1 6.77 6 6.4 6.4 0 1 1-6.77-6"/><path fill="#fefefe" d="M317.06 221.89a6 6 0 0 1 4.69-.67 5.5 5.5 0 0 1 3.18 2.33 5.85 5.85 0 0 1-1.67 7.97 5.8 5.8 0 0 1-4.74.7 5.8 5.8 0 0 1-3.73-3.45 6 6 0 0 1-.2-3.47 5.6 5.6 0 0 1 2.47-3.42"/><path fill="#8494fc" d="M317.06 221.89a6 6 0 0 1 3.15-.88c.05.12.22.24.15.35-.18.28-.62.44-.91.6a8 8 0 0 0-1.14.76 5.9 5.9 0 0 0-1.19 7.96c.4.62.85 1.06 1.4 1.54a5.8 5.8 0 0 1-3.73-3.45 6 6 0 0 1-.2-3.47 5.6 5.6 0 0 1 2.47-3.42"/><path fill="#fefefe" d="M317.06 221.88q.15.1.32.18a6.6 6.6 0 0 0-2.03 7.26c-.2-.03-.36-.4-.56-.55a6 6 0 0 1-.2-3.47 5.6 5.6 0 0 1 2.47-3.42"/><path fill="#bac9fb" d="M314.79 228.77c.2.15.36.52.56.55.09.24.39.93.41 1.12a5 5 0 0 1-.97-1.67"/><path fill="#8494fc" d="M321.75 221.22a5.5 5.5 0 0 1 3.18 2.33c-1.1.42-2.95-.56-3.34-1.64-.15-.43.03-.42.16-.7m.96 9.74a23 23 0 0 0 3-3.04 5.6 5.6 0 0 1-4.81 4.48c.1-.1.4-.3.53-.4.4-.3.92-.68 1.28-1.04"/><path fill="#d5e3fb" d="M317.12 230.68c1.64.82 2.8 1.14 4.68.6.25-.08.7-.28.9-.33-.35.36-.87.73-1.28 1.04-.13.1-.42.3-.53.4a6 6 0 0 1-2.37-.17c-.55-.48-1-.92-1.4-1.54"/><path fill="#8494fc" d="M320.38 227.04c1-.06 1.37.6 1.72 1.4.41.93.36 2.13-.91 2.14-.26 0-.56-.15-.8-.26-.59-.23-1.24.04-1.74-.29-1.43-.95.74-2.8 1.73-3m-.17-2.57c1.1-.03 1.12 1.82.07 2.12-1.07.07-1.21-1.77-.07-2.12m2.23.57c1.15-.02.93 1.6-.14 2.02-1.22.1-1-1.72.14-2.02m-4.29.66c1.1.03 1.18 1.77.15 2.03-1.06-.06-1.2-1.7-.15-2.03m5.24 1.28c1.2-.15 1.05 1.37-.02 1.83-1.23.13-1.06-1.4.02-1.83"/><path fill="#cde6fb" d="M315.54 200.72c0-.31-.07-.41.23-.53.23.05.28.06.48.18zm-1.37.8c.32 0 1-.01 1.28-.1l.34.04c-.71.18-1.4.22-2.13.3.17-.07.4-.12.58-.17z"/><path fill="#9ad894" d="M385.1 341.45c-.06-3.24.9-12.22 4.77-14.28 2.11-1.13 3.13 3.68 3.48 5.36l.07 1c-.16 1.14.03 1.33-.7 1.91l-1.6.28-.22-2.56c-.19-1.01-.37-2.24-.66-3.2-2.81 4.89-3.23 10.3-2.69 15.83.09.85.07 1.84-.42 2.57-1.41.13-2.86-4.22-3.92-5.71zm12.87-7.5c1.65-1.05 5.34-3.72 7.06-1.98.63 2.46-2.76 7.25-4.06 9.78-1.1-.39-1.2-.56-1.92-1.5.97-2.18 2.26-4.22 3.49-6.26-1.3.65-2.18 1.23-3.4 2.04-.3-1.08-.45-1.22-1.17-2.09"/><path fill="#9ad894" d="M393.43 333.53c.19 1.85.18 3.27.17 5.12.6-.8 1.28-1.8 1.93-2.52.64-.69 1.71-1.55 2.44-2.19.72.87.87 1.01 1.17 2.09l-1.62 1.46c-.83 1-1.64 1.94-2.34 3.04-.94-.6-2.83-1.2-3.94-.91a65 65 0 0 0-.11-3.9l1.6-.28c.72-.58.53-.77.7-1.9"/><path fill="#9ad894" d="M397.97 333.94c.72.87.87 1.01 1.16 2.09l-1.62 1.46c-1.02-.04-1.37-.63-1.98-1.36.63-.69 1.7-1.55 2.44-2.19m-19.74 9.7c-.66-1.97-2.79-6.37.13-7.15 1.7.25 3.3 1.45 4.66 2.48-.35.98-.74.95-1.8 1.64-.75-.52-1.03-.93-1.77-.85-.15.8.69 2.46 1.05 3.29-.83.28-1.38.51-2.27.58m13-4.01c1.12-.29 3 .31 3.95.9-1.2 2.21-2.49 7.2-3.7 7.83l-.38-.21c-.3-.97.08-7.06.14-8.52m11.59 2.94c1.97-.5 4.9-1.38 5.86 1-.1 1.46-.84 2.11-1.82 3.19-.84-.56-.93-.69-1.53-1.5l.26-.48-.27-.26-1.64.28a4.4 4.4 0 0 0-.86-2.23"/><path fill="#9ad894" d="M399.06 340.25c.71.94.8 1.11 1.91 1.5l-1.18 2.36c.99-.53 2-1.12 3.04-1.55.6.97.66 1.1.86 2.23a17 17 0 0 0-2.95 1.3l-3.16-2.58zm-20.14 5.31.91 2.4c-2.12-.36-5.08-.27-7.71-.69.26-.78 1.1-1.26 1.8-1.79 1.63.02 3.38.01 5 .08m27.26 2.15c.9.04 4.25.11 4.92.31.21.6.57 1.75.9 2.24-2.24-.36-4.76-.55-7.04-.77z"/><path fill="#9ad894" d="m397.58 343.51 3.16 2.58q-.74.66-1.5 1.31c-.85.76-1.39 1.33-2.56 1.04-.62-1.25.44-3.62.9-4.93m-19.35.12c.9-.07 1.44-.3 2.27-.58.5 1.29 1.26 3 1.31 4.31-.5 1.08-.87.84-1.98.6l-.9-2.4zm32.87 4.4 4.8.62v2.2l-.3-.05c-1.17-.3-2.45-.45-3.6-.54-.33-.49-.69-1.64-.9-2.24m-5.77-2.77c.61.81.7.94 1.54 1.5l-.7.96-1.2 1.78c-1-.02-1.47.12-1.72-.91.26-1.1 1.37-2.37 2.09-3.33m-22.32-6.28c.72.81 1.44 1.6 2.08 2.48l-1.89 1.2-2-2.04c1.07-.69 1.46-.66 1.8-1.64m-4.09 6.6.91 2.38c-2.12-.35-5.08-.26-7.71-.68.26-.78 1.1-1.26 1.8-1.79 1.63.02 3.38.01 5 .08"/><path fill="#e7e9fc" d="m366.43 346.46.42-1.75c1.92.66 4.94.4 7.07.77-.7.53-1.54 1-1.8 1.8a25 25 0 0 1-5.69-.82"/><path fill="#9ad894" d="M30.82 313.1c.54 3.02 2.3 9.6 3.28 12.64.24 1.03.5 2.3.82 3.28l.32.42c1.36-.25 1.92-.65 3.06-.33l.19.4c-.3.83-.36.84-1.12 1.36-2.03.34-8.69 1.13-10.65.91l1.1-.96a26 26 0 0 0-3.55-6.53c-.37.28-1.7 1.27-2 1.58-1.59-2.08-5.12-5.07-4.16-7.75 2.88-2.77 9.35.95 11.88 2.76-.62-2.16-1.17-4.5-1.73-6.7z"/><path fill="#fff" d="M20.65 319.71c5.58 1.1 8.23 2.67 11.41 7.57l2.04-1.54c.24 1.04.49 2.3.82 3.28l.32.42c1.35-.25 1.92-.65 3.06-.33l.19.4c-.3.83-.36.84-1.12 1.36-2.03.34-8.7 1.13-10.66.91l1.11-.96a26 26 0 0 0-3.55-6.53c-1.17-1.5-2.39-3.14-3.62-4.58"/><path fill="#9ad894" d="M34.1 325.74c.24 1.03.49 2.3.82 3.28-.76.9-.4.6-1.75 1.03l-1.1-2.77zm-9.83-1.45a26 26 0 0 1 3.55 6.53l-1.1.96-1.78-.67c-1.17-.44-4.82-1.23-5.87-.61-.06 1.41 1.22 1.58.82 2.76l-.84.59c-.8-.29-1.92-1.17-2.85-1.64-3.6-4.46 5-4.5 7.43-4.2l-1.35-2.14a27 27 0 0 1 2-1.58M39 316.55c1.07-2.72 2.38-5.22 5.54-5.8.26 2.3.2 3.15 2.68 3.78-.29 1.08-.7 2.47-.9 3.55-.45-1.42-2.01-.81-3.13-.5a8 8 0 0 0 .18-3.47c-2.45.94-2.46 8.07-4.14 9.38-.76-.84-1.94-4.42-2.42-5.73.91-.35 1.57-.48 2.19-1.2m-10.75-2.38c-1.03-6.77 1.49-8 6.67-3.6-.79.88-1.33 1.1-2.34 1.65l-1.42-.98-.38.08c-.1.84-.09.93.02 1.77z"/><path fill="#9ad894" d="M34.93 310.59c.91.98 1.56 1.64 2.31 2.75-.88.58-1.4.86-2.15 1.63-.84-1.13-1.5-1.76-2.5-2.74 1.02-.55 1.55-.77 2.34-1.64"/><path fill="#9ad894" d="M35.1 314.97c.74-.77 1.25-1.05 2.14-1.63.92 1.34 1.2 1.7 1.77 3.21-.62.73-1.28.86-2.19 1.2-.52-.9-1.17-1.89-1.73-2.78m33.97 20.4c-5.08 3.02-8.13 8.25-9.42 13.6-2.03-3.3-4.22-5.88-8.07-7.6-1.24-.5-3.45-1.37-4.79-.95-2.31.72.47 3.98 1.14 5.1a50 50 0 0 1 2.42 4.46l.52 1.13.49 1.18a15 15 0 0 0-5-2.4c-3.27-.85-6.75-.5-3.53 3.2a22 22 0 0 1 3.39 5.55 1111 1111 0 0 1-11.11 0c.9-3.1 2.27-5.38 3.71-8.23.3-.59-.52-1.34-1.14-1.38a8.7 8.7 0 0 0-5.58 1.44 8 8 0 0 0-1.45 1.2c.14-1.95.48-3.76.81-5.69.17-.98.9-3.48.25-4.24-1.06-1.23-3.45.45-4.26 1.24-2.2 1.97-3.33 4.4-4.13 7.06-1.49-2-4.4-5.3-7.35-4.32-1.7.56.7 6.08 1.06 7.15-1.49-.68-6.72-2.44-5.78 1.04.09.3.76 1.26.98 1.58l.9 1.5.75 1.65c-1.32 0-4.93-.36-5.44.88 0 .5.47 1.24 1.03 1.26 1.9.08 3.82.03 5.72.03h66.79l-.03-2.16c.94-1.47 2.12-2.48 3.24-3.8.45-.54.3-1.59-.5-1.83-2.4-.7-4.97-.15-7.22.72.97-1.84 2.93-4.02 4.48-5.49.67-.7 1.7-1.33 2.3-2.07 1.43-1.77-.94-2.15-2.27-2.11-4.73.14-8.78 2.28-12 5.37.96-4.57 2.65-8.83 4.14-13.26.13-.5.33-1.07.03-1.54-.96-1.52-3.96.06-5.08.72"/><path fill="#fff" d="M30.4 344.12c-.42 2.3-2.16 11.22-.96 12.96.15.07.18.12.36.07 1.37-.37 1.71-4.72 7.14-5.8a25 25 0 0 0-3.4 7.64H16.96c-.26-.57-.52-1.2-.83-1.74-.35-.63-1.05-1.94-1.57-2.4l-.1-.42c1.15-.81 4.27 2.2 4.94 3.03.3-.03 1.26-.59 1.58-.76-.73-2.88-2.04-5.9-2.7-8.62 5.51 2.62 5.25 8.73 6.53 9.34.9-.3.69-2.63.75-3.45.3-3.77 1.71-7.3 4.84-9.85"/><path fill="#e7e9fc" d="M60.05 363c.39 2.68.77 5.32 1.06 8.01l.17.94.1 1.34c-4.66-1.94-10.47-4.7-15.33-5.83-.42-.1-5.57-.5-6.12-.46.76-1 1.14-1.82 1.5-3 2.7-.24 16.54-.35 18.62-1m11.38 2.5a729 729 0 0 1 15.5-2c2.99-.35 6.55-.85 9.5-1 1.01 1.15 4.7 2.07 6.35 2.36l.58-.3c.29 1.82.42 3.5 1.42 5.07-1-.2-4.73-1.13-5.38-1.05-3.06.4-8.47.92-10.97 1.42-4 .5-14.5 1.5-17 2-.3-1.01.17-5.22 0-6.5m232.4-3.5c.03 6.43 3.85 7.65 9.37 8.77-4.76.53-25.16-.38-27.77-3.81-.23-3.64 15.74-4.8 18.4-4.96m22.97-1c1.56.42 6.78.35 8.63.5.06 1.89-.56 3.94 1.07 5.07 6.55 4.56 15.47 2.77 19.43-4.57 2.98.56 11.84 1.44 13.84 3.53.5 1.85-2 2.47-3.46 2.75-15.08 2.83-30.96 3-46.3 3.12-2.19.02-4.4-.48-6.58-.62 8.1-1 10.38-2.31 13.37-9.78m-116.77 8.45c2.54.2 6.68-.32 9.47-.45l-.32 2.29-.33 3.46c-.08.96.13 1.8.08 2.75-3.39-1.22-7.02-2.45-10.5-3.69.9-1.3 1.07-2.4 1.4-3.9zm54.91-.45c1.9.33 9.2 1 9.06 3.57-1.42 1.68-6.13 1.95-8.35 2.12q-.6.04-1.22.03c1.88-1.88 1.08-3.38.51-5.72m-23.14-.94c.58 3.23 3.9 2.93 6.58 2.63 1.65-.19 3.14-.84 3.3-2.69l.52.64a23 23 0 0 0 2.66-.27l.14-.04c.36 2.68.36 5.88 2.78 7.47-3.75.88-12.23 1.53-16.52 2.11-3.03.4-12.44 1.6-14.83 1.5 1.2-1.91 1-7.64 1.23-10.36 4.6-.44 9.56-.91 14.14-1"/><path fill="#9ad894" d="M1404.75 251.07a20.3 20.3 0 0 1 9.85-6.48c6.29-1.91 11.11-.87 16.77 1.8q.34-.49.71-.95c8.6-10.79 25.58-1.23 22.2 2.03-.27.06-1.13.25-1.3.15-3.39-2.13-3.47-3.16-7.54-4.17q-1.27-.19-2.56-.2a9.6 9.6 0 0 0-8.76 4.8c-1.43 2.3-2.02 2.1-4.5.74-10.66-5.77-22.17-.27-26.03 9.98-.43 1.16-1.36 5.44-2.16 6.1l-.71-.08c-.73-.62-1.08-.03-1.29-.92 1.29-4.49 2.46-9.11 5.32-12.8"/><path fill="#9ad894" d="M1283.24 214.6a14 14 0 0 1 6.02-5.32 16 16 0 0 1 11.5-.78c5.11 1.54 7.83 4.64 10.13 8.88 9.94-2.75 18.08 3.01 18.55 12.46 5.66.71 8.9 2.71 11.43 7.49 14.2-4.13 29.31 5.54 30.05 19.35 7.67-.07 12.1 2.37 14.61 9.27 1.58.38 2.37.51 3.77 1.27 4.21-4.06 6.86-4.8 12.63-3.22a7 7 0 0 1-1.55 2.36c-4.47-1.55-7.42.58-10 3.56-1.21 1.39-2.6-1.33-4.38-1.47-.62.2-1.59.64-2.25.49-.47-.1-1.93-4.55-2.48-5.4-3.75-5.9-7.68-3.23-12.71-4.46-.62-1.07-.49-3.45-.71-4.8-1.52-9.7-12.53-16.56-22.84-15.22-1.89.25-3.77 1-5.65 1.21-.79-.7-1.53-2.41-1.98-3.43-1.83-4.12-6.4-3.66-10.51-5-.8-1.56-.28-3.58-.65-5.33-.51-2.37-2.33-4.53-4.49-5.76-4.07-2.32-7.47-1.58-11.78-.57-1.41.33-2.64-3.66-3.56-5a10 10 0 0 0-2.83-2.74c-4.98-3.25-12.81-3.03-16.58 1.73-.84 1.06-1.57 2.26-2.4 3.36-1.65-.03-2.68-.87-4.65-1.03-1.5 0-7.13.81-8 .55-.3-.84-.88-1.04 0-1.5 2.06-1.07 9.2-1.53 11.31-.94M1127.43 192c-3.34 4.9-5.71 10.7-4.41 14.44l3.41 1.06c-.51-1.8-.32-8.62 2.5-12.5 3.97-5.46 9.95-10.76 17.84-11.18 1.79-.1 3.65.15 5.48.72 2.27.7 7.77 3.97 8.62 2.53 2.57-4.4 4.67-7.8 10.74-8.5 3.21-.37 7.17.5 10.25 2.62 2.26 1.57 4.07 4.1 6.48 5.12l-.01-4.09c-10.9-9.62-24.29-9.42-29.77 1.17-6.69-2.71-12.48-3.88-18.58-1.56-4.55 1.7-9.15 5.18-12.55 10.17m-619.7 103.62a18.4 18.4 0 0 1 8.58-6.73c5.6-2.14 9.96-1.33 15.16 1q.29-.48.6-.94c7.3-10.87 22.95-2.31 20.05 1-.24.07-1.01.3-1.16.2-3.15-1.92-3.25-2.91-6.96-3.72a17 17 0 0 0-2.3-.1c-3.58.12-6.1 2-7.68 5.06-1.2 2.31-1.74 2.13-4.03.93-9.82-5.16-19.94.7-23 10.83-.34 1.15-.31 2.46-1 3.14l-.65-.05c-.67-.57-.65-.53-.87-1.39.98-4.41.83-5.52 3.25-9.23"/><path fill="#fff" d="M59.83 157.56c5.68-.63 6.59 5.92 1.61 8.22-5.4.04-6.43-5.38-1.61-8.22m3.45 22.12c.73.08.69.06 1.33.41.96 1.6.21 2.89-.98 4.11-2.17-1.5-1.93-2.6-.35-4.52"/><path fill="#e7e9fc" d="M63.84 168.08c.85 1.1.42 7.22.33 8.97-1.02-.82-.78-7.64-.33-8.97m179.9 152.67c2.55-2.14 2.07-1.84 5.08-.63-1.2.54-3.74.7-5.07.63"/><path fill="#fff" d="M261.21 315.56a352 352 0 0 0 7.6 2.34c-1.33.25-9.9 1.33-11 1.22 1.75-1.1 2.17-1.89 3.4-3.56"/><path fill="#9ad894" d="M350.73 252.29a14.3 14.3 0 0 1 6.02-5.76 15 15 0 0 1 11.5-.84c5.1 1.66 7.83 5.01 10.13 9.6 9.94-2.97 18.08 3.26 18.55 13.47 5.66.77 8.9 2.93 11.43 8.1 14.2-4.47 29.31 6 30.05 20.92 7.67-.07 12.1 2.56 14.6 10.03 1.59.4 2.38.55 3.77 1.37 4.22-4.39 6.92-4.83 12.7-3.13a7 7 0 0 1-1.6 2.2c-4.48-1.68-7.43.62-10.01 3.85-1.21 1.5-2.6-1.44-4.39-1.6-.62.23-1.59.7-2.24.54-.48-.12-1.93-4.92-2.48-5.85-3.75-6.37-7.68-3.48-12.71-4.82-.63-1.15-.5-3.72-.7-5.19-1.53-10.48-12.55-17.9-22.85-16.45-1.89.27-3.78 1.08-5.65 1.31-.79-.75-1.53-2.6-1.98-3.71-1.83-4.45-6.4-3.96-10.51-5.41-.8-1.68-.29-3.87-.66-5.76a10 10 0 0 0-4.48-6.22c-4.07-2.51-7.48-1.71-11.78-.62-1.4.36-2.65-3.96-3.56-5.4a11 11 0 0 0-2.83-2.98c-4.98-3.5-12.81-3.27-16.58 1.88-.84 1.14-1.57 2.45-2.4 3.64-1.83.88-2.87-1.17-4.84-1.35-.89-.08-2.2.63-3.07.35-.3-.92.02-1.47.9-1.97 2.06-1.16 3.55-.83 5.66-.2M98.43 284.5l-.27 1.64C82.93 274 70.54 281.01 69 279.94c-.5-.35-1.32-1.96-1.7-2.53-3.2-4.62-7.02-7.54-12.6-8.74-5.18-1.12-10.73-.38-15.22 2.51-4.52 2.92-6.02 6.42-7.12 11.47-8.55-.44-12.55 2.45-12.36 11.36-5.74.1-11.9 2.05-13.38 8.4l-.05.2c-.67 2.88 0 7.37-1.21 8.71-3.9.06-4.22-18.27 11.84-20 .49-7.39 5.55-11.48 12.8-11.65 4.3-14.02 20.31-17.84 32.44-10.9 3.55 2.04 5.74 4.78 7.87 8.23 4.72-1.79 24.63-2 28.13 7.5"/><path fill="#9ad894" d="M474.38 301.34a18.4 18.4 0 0 1 10.73-2.03c5.94.68 9.45 3.4 13 7.87q.47-.3.96-.57c11.48-6.29 21.44 8.5 17.34 10.12-.25-.06-1.03-.21-1.12-.36-1.9-3.15-1.55-4.08-4.47-6.5a17 17 0 0 0-2-1.15c-3.23-1.55-6.33-1.03-9.15.96-2.12 1.5-2.52 1.09-4-1.03-6.34-9.1-18.03-8.55-25.4-.96-.83.86-1.41 2.04-2.34 2.32l-.55-.34c-.34-.81-.33-.77-.13-1.63 2.9-3.47 3.27-4.53 7.13-6.7m642.79-95.22a16.5 16.5 0 0 0-7.4-6.08 18.2 18.2 0 0 0-13.5-.23c-5.89 2.2-8.87 6.13-11.29 11.42-11.81-2.71-20.96 4.8-20.89 16.29-6.58 1.22-10.24 3.85-12.89 9.8-16.89-4.12-33.95 8.58-33.91 25.39-8.98.4-14.01 3.63-16.5 12.17-1.82.56-2.74.77-4.32 1.78-5.2-4.67-8.38-5-15.04-2.72.13.54 1.55 2.11 2 2.36 5.14-2.15 8.73.24 11.95 3.7 1.5 1.6 2.96-1.78 5.03-2.06.74.2 1.9.68 2.67.45.54-.16 1.96-5.64 2.54-6.71 4.01-7.4 8.78-4.4 14.59-6.21.66-1.34.35-4.22.51-5.88 1.15-11.86 13.59-20.88 25.75-19.9 2.22.18 4.48.97 6.69 1.12.87-.9 1.63-3.03 2.09-4.3 1.87-5.1 7.26-4.84 11.97-6.73.84-1.94.1-4.36.42-6.5.44-2.92 2.44-5.65 4.87-7.27 4.62-3.08 8.65-2.4 13.75-1.44 1.68.32 2.87-4.6 3.85-6.29a12 12 0 0 1 3.13-3.51c5.62-4.26 14.8-4.49 19.52 1.06 1.05 1.23 1.98 2.65 3.02 3.93 2.2.88 3.29-1.5 5.59-1.82 1.03-.14 4.06-.07 5.06-.44-.5-.81-.5-1-.5-1.67-3-2.02-6.33-.55-8.76.3"/></svg>